<svg width="1024" height="1024" viewBox="0 0 1024 1024" fill="none" xmlns="http://www.w3.org/2000/svg">
  <rect width="1024" height="1024" rx="240" fill="#101210"/>
  <circle cx="512" cy="796" r="96" fill="#C8FF00"/>
  <path d="M640 244C640 225.222 632.533 207.213 619.255 193.934C605.976 180.656 587.967 173.189 569.189 173.189H454.811C436.033 173.189 418.024 180.656 404.745 193.934C391.467 207.213 384 225.222 384 244V471.229H285.983C259.675 471.229 246.5 503.036 265.087 521.622L461.104 717.639C489.183 745.719 534.817 745.719 562.896 717.639L758.913 521.622C777.5 503.036 764.325 471.229 738.017 471.229H640V244Z" fill="#C8FF00"/>
</svg>
